<svg width="284" height="61" viewBox="0 0 284 61" fill="none" xmlns="http://www.w3.org/2000/svg">
<g clip-path="url(#clip0_1_4)">
<path d="M17.1666 0.0402222H30.4488V11.8881H16.3043C13.7513 11.8881 11.8154 12.8325 10.4968 14.7215C8.70088 16.6135 7.32659 20.2648 6.37386 25.6755C6.18124 27.2276 6.07538 28.818 6.05825 30.4173C6.05825 35.0116 6.91394 39.3318 8.62532 43.3779C9.74549 45.5499 10.7975 46.9875 11.7814 47.6908C12.8601 48.6709 14.341 49.1611 16.2243 49.1611H30.4488V61.0045H16.8911C13.4253 61.0045 10.8583 60.1582 9.18985 58.4659C5.46038 55.1885 2.78885 49.8256 1.17527 42.3769C0.387643 38.6179 -0.0123452 34.5766 -0.0004758 30.4978C-0.0004758 21.4224 1.78795 13.6757 5.36481 7.25798C7.70592 3.68559 9.82329 1.57613 11.717 0.929591C12.686 0.339658 14.5026 0.0432016 17.1666 0.0402222ZM14.5996 24.6611H30.4488V36.3792H14.5996V24.6611Z" fill="white"/>
<path d="M50.2901 28.2721V37.0943H34.91V28.2721H50.2901Z" fill="white"/>
<path d="M51.5814 0.0848999H68.4551C74.5686 0.0848999 78.8115 5.45687 81.1837 16.2008C81.7659 19.2804 82.0583 22.5509 82.0461 25.8453C82.0461 32.9961 80.6577 39.2529 77.881 44.616C76.1696 47.6609 74.0722 49.7197 71.589 50.7923C70.6275 51.0647 69.6572 51.1918 68.6862 51.1723L57.6623 51.4271V60.9866H51.5391V39.3824H68.2083C70.3836 39.3824 71.9757 38.5646 72.9847 36.929C74.2753 35.2663 75.2013 32.5848 75.763 28.8843C75.8603 28.0364 75.9161 27.171 75.9296 26.3012V25.0275C75.9296 21.8394 75.2495 18.7378 73.8893 15.7226C72.4728 13.2169 70.9021 11.9625 69.1775 11.9595H51.5814V0.0848999Z" fill="white"/>
<path d="M85.1977 0.0848999H91.2986V28.8933C91.2986 36.9587 92.8344 42.8238 95.906 46.4885C97.2529 48.2762 99.0413 49.1701 101.271 49.1701H115.703V61.0134H101.478C97.6255 61.0134 94.5465 59.391 92.241 56.1464C91.5994 55.4909 90.6348 53.9073 89.3472 51.3958C87.6788 47.6178 86.5497 43.8114 85.96 39.977C85.4562 37.0719 85.2035 32.9111 85.2021 27.4945L85.1977 0.0848999Z" fill="white"/>
<path d="M135.354 0H149.357V61H143.282V11.888L137.855 11.9283H136.551C133.52 11.9283 131.836 12.183 131.5 12.6925C129.665 13.7109 128.05 15.9277 126.909 18.9941C125.562 22.8673 124.889 26.7168 124.889 30.5425C124.889 35.2798 125.8 39.6372 127.625 43.6148C128.845 45.9568 129.898 47.3659 130.78 47.8427C131.669 48.7366 133.191 49.1835 135.345 49.1835H139.569V60.9866H134.51C130.751 60.9866 127.574 58.9978 124.979 55.0202C123.101 52.0407 121.846 49.334 121.215 46.8996C119.643 41.8822 118.857 36.7503 118.858 31.5032V29.7157C118.858 22.3862 120.226 15.66 122.961 9.53725C124.615 6.31348 125.968 4.27701 127.02 3.42787C128.018 2.39248 129.069 1.58308 130.156 1.01451C131.347 0.33817 133.08 0 135.354 0Z" fill="white"/>
<path d="M164.783 61V51.0157C162.34 49.7018 160.056 47.3978 158.071 44.2449C156.403 41.2297 155.316 38.7196 154.811 36.7145C154.109 34.4481 153.564 32.0004 153.191 29.4386C152.746 26.62 152.524 22.7839 152.524 17.9304V0.0848999H158.625V18.4846C158.625 23.8476 159.144 27.9801 160.181 30.8821C160.389 31.8117 161.062 33.2924 162.198 35.3245C163.769 37.9223 165.74 39.3426 167.773 39.3426C169.808 39.3426 171.779 37.9223 173.35 35.3245C174.486 33.2895 175.16 31.8087 175.37 30.8821C176.407 27.9771 176.925 23.8447 176.925 18.4846V0.0848999H183.026V17.9348C183.026 22.7884 182.804 26.6245 182.359 29.4431C182 32.0146 181.454 34.466 180.74 36.719C180.235 38.721 179.156 41.2313 177.501 44.2494C175.507 47.3946 173.217 49.6961 170.769 51.0157V61H164.783Z" fill="white"/>
<path d="M203.343 0.0402222H216.618V11.888H202.476C199.925 11.888 197.989 12.8325 196.671 14.7215C194.875 16.6135 193.501 20.2648 192.548 25.6755C192.356 27.2276 192.25 28.818 192.233 30.4173C192.233 35.0116 193.087 39.3318 194.797 43.3779C195.919 45.5499 196.971 46.9875 197.953 47.6908C199.034 48.677 200.515 49.1715 202.398 49.1746H216.622V61.0179H203.065C199.603 61.0179 197.036 60.1716 195.366 58.4793C191.636 55.202 188.964 49.8388 187.351 42.3903C186.562 38.6295 186.161 34.5846 186.173 30.5022C186.173 21.4269 187.962 13.6802 191.537 7.26243C193.882 3.68708 196.001 1.57613 197.896 0.929591C198.863 0.339658 200.679 0.0432016 203.343 0.0402222ZM200.778 24.6611H216.618V36.3792H200.778V24.6611Z" fill="white"/>
<path d="M219.836 0.0402222H239.317C242.761 0.0402222 245.454 2.11244 247.396 6.25686C248.149 7.5813 248.764 9.19115 249.206 10.9942C249.927 13.7538 250.316 16.8155 250.341 19.9326V21.6666C250.341 26.1359 249.378 30.4933 247.452 34.7391C246.218 37.1226 245.096 38.6451 244.087 39.3066C246.639 44.7828 247.914 52.0169 247.914 61.009H241.794V60.0793C241.794 53.4232 240.454 48.1347 237.775 44.2136C236.246 42.0416 234.246 40.9556 231.774 40.9556H219.836V29.1883H239.695C241.869 29.1883 243.342 27.0311 244.114 22.7168C244.199 21.823 244.254 21.108 244.282 20.518C244.282 18.1196 243.785 15.9476 242.789 14.002C242.02 12.7121 241.055 11.9954 240.054 11.973C240.054 11.8612 239.759 11.8031 239.164 11.8031H219.828L219.836 0.0402222Z" fill="white"/>
<path d="M263.132 0.0849086H283.558V12.5986H262.941C261.33 12.5986 260.342 14.1912 259.976 17.3762V18.27C259.976 20.159 260.503 21.7382 261.554 23.0074C261.875 23.2611 262.218 23.3901 262.563 23.3872H272.931C275.599 23.3872 277.408 23.937 278.359 25.0364C280.717 27.1548 282.346 30.3845 283.249 34.7257C283.737 37.2192 283.994 39.8714 284.007 42.5512C284.007 48.6412 282.59 53.7733 279.757 57.9476C278.858 59.0692 277.879 59.9116 276.855 60.4457C276.041 60.8123 274.687 60.9955 272.794 60.9955H253.524L253.502 48.4818H274.203C275.942 48.4818 277.054 46.7612 277.536 43.3198L277.579 42.1803C277.579 39.7519 276.987 37.8898 275.801 36.5937C275.296 36.1079 274.74 35.8764 274.181 35.9188H262.548C259.505 35.9188 256.966 33.2373 254.933 27.8744C254.084 25.1753 253.623 22.0574 253.6 18.8644V17.2109C253.6 10.954 255.115 6.0051 258.145 2.36419C259.394 0.841692 261.056 0.0819292 263.132 0.0849086Z" fill="white"/>
</g>
<defs>
<clipPath id="clip0_1_4">
<rect width="284" height="61" fill="white"/>
</clipPath>
</defs>
</svg>
